# xmcd
#
# Track frame offsets:
#	150
#	3969
#	17184
#	34445
#	51156
#	63106
#	79670
#	92035
#	105963
#	112978
#	127365
#	139771
#
# Disc length: 2089 seconds
#
# Revision: 0
# Processed by: cddbd v1.5.2PL0 Copyright (c) Steve Scherf et al.
# Submitted via: EasyCDDAExtractor 4.6.9.1
#
DISCID=9808270c
DTITLE=Bill Gaither Trio - Christmas...Back Home In Indiana
DYEAR=1972
DGENRE=Country
TTITLE0=We Wish You A Merry Christmas
TTITLE1=The Virgin Mary Had A Baby Boy
TTITLE2=Sleep, Baby, Sleep
TTITLE3=What Child Is This?-The First Noel-God Rest Ye Merry, Gentlemen
TTITLE4=Luke II/Silent Night
TTITLE5=Hark! The Heral Angels Sing/Redeeming Love
TTITLE6=C-H-R-I-S-T-M-A-S
TTITLE7=Alleluia
TTITLE8=12-24-69
TTITLE9=O Come, O Come, Emmanuel-O Little Town Of Bethlehem-Joy To The World
TTITLE10=One Little Manger
TTITLE11=He's Still The King Of Kings (And Lord Of Lords)
EXTD=
EXTT0=
EXTT1=
EXTT2=
EXTT3=
EXTT4=
EXTT5=
EXTT6=
EXTT7=
EXTT8=
EXTT9=
EXTT10=
EXTT11=
PLAYORDER=
